<svg width="30" height="30" viewBox="0 0 30 30" fill="none" xmlns="http://www.w3.org/2000/svg">
<path opacity="0.5" d="M29.9926 0.202669L22.6526 27.625C22.6153 27.7495 22.466 27.7868 22.3789 27.6997L17.4648 22.7828L21.1472 9.04056C21.1846 8.91608 21.0726 8.80405 20.9482 8.84139L7.21355 12.5259L2.32432 7.63396C2.23723 7.54683 2.27455 7.39746 2.39896 7.36011L29.7936 0.00350544C29.918 -0.02139 30.03 0.0906395 29.9926 0.202669Z" fill="#00B37E"/>
<path opacity="0.5" d="M17.4646 22.7826L15.5736 29.8778C15.5363 30.0023 15.387 30.0397 15.2999 29.9525L0.0474613 14.704C-0.0396243 14.6169 -0.00230207 14.4675 0.122106 14.4302L7.21336 12.5257L17.4646 22.7826Z" fill="#00B37E"/>
<path d="M21.1468 9.04032L17.4644 22.7826L7.21313 12.5257L20.9478 8.84116C21.0722 8.80381 21.1841 8.91584 21.1468 9.04032Z" fill="#00B37E"/>
</svg>
